<?xml version="1.0" standalone="no"?>
<!DOCTYPE svg PUBLIC "-//W3C//DTD SVG 20010904//EN"
 "http://www.w3.org/TR/2001/REC-SVG-20010904/DTD/svg10.dtd">
<svg version="1.0" xmlns="http://www.w3.org/2000/svg"
 width="1024.000000pt" height="1024.000000pt" viewBox="0 0 1024.000000 1024.000000"
 preserveAspectRatio="xMidYMid meet">

<g transform="translate(0.000000,1024.000000) scale(0.100000,-0.100000)"
fill="#000000" stroke="none">
<path d="M0 5120 l0 -5120 5120 0 5120 0 0 5120 0 5120 -5120 0 -5120 0 0
-5120z m1830 1595 c51 -26 53 -116 5 -164 -21 -21 -36 -26 -95 -29 -80 -5 -75
-14 -58 106 9 70 15 85 32 92 33 14 84 11 116 -5z m396 2 c3 -3 1 -15 -6 -26
-9 -18 -17 -21 -46 -15 -43 8 -46 -10 -4 -31 84 -43 50 -130 -51 -128 -58 1
-70 9 -59 40 8 18 14 21 49 16 50 -7 53 8 6 30 -56 26 -57 94 -2 117 22 10
103 7 113 -3z m806 -17 c27 -27 30 -36 25 -72 -7 -54 -35 -90 -83 -107 -77
-27 -144 28 -129 105 17 95 124 137 187 74z m680 0 c21 -25 24 -86 7 -124 -16
-35 -67 -56 -133 -56 -63 0 -60 -5 -45 89 20 125 17 122 103 117 37 -3 54 -9
68 -26z m231 1 c25 -25 26 -100 2 -137 -38 -58 -135 -68 -175 -17 -39 49 -16
142 42 168 42 19 105 13 131 -14z m252 9 c20 -17 19 -73 -2 -99 -10 -11 -36
-24 -58 -29 -34 -7 -41 -12 -43 -35 -3 -22 -8 -27 -33 -27 -33 0 -33 0 -18 89
16 103 18 109 37 115 28 8 101 -1 117 -14z m218 -9 c25 -25 26 -100 2 -137
-38 -58 -135 -68 -175 -17 -39 49 -16 142 42 168 42 19 105 13 131 -14z m180
18 c43 -23 50 -66 16 -100 -17 -17 -19 -25 -10 -51 16 -44 14 -48 -18 -48 -25
0 -31 6 -41 36 -13 38 -26 35 -32 -6 -2 -19 -10 -26 -30 -28 -32 -4 -32 -6
-16 106 9 70 15 85 32 92 30 13 74 12 99 -1z m-2533 -8 c0 -31 -14 -41 -56
-41 -24 0 -44 -4 -44 -10 0 -5 15 -10 33 -10 40 0 46 -5 40 -31 -4 -15 -14
-19 -44 -19 -28 0 -39 -4 -39 -15 0 -11 12 -15 46 -15 38 0 45 -3 40 -16 -3
-9 -6 -20 -6 -25 0 -5 -34 -9 -75 -9 -51 0 -75 4 -75 12 0 6 5 41 11 77 19
122 10 111 94 111 41 0 75 -4 75 -9z m348 -13 c-2 -19 -10 -24 -45 -26 -52 -4
-58 -22 -7 -22 31 0 35 -3 32 -22 -2 -18 -11 -24 -42 -28 -58 -7 -59 -30 -1
-30 42 0 46 -2 43 -22 -3 -21 -9 -23 -81 -26 -72 -3 -78 -1 -73 15 3 10 10 55
17 101 l12 82 74 0 c71 0 74 -1 71 -22z m126 -25 c26 -51 27 -50 38 22 2 13
12 21 31 23 32 4 33 -1 12 -111 -8 -43 -15 -81 -15 -83 0 -2 -14 -4 -31 -4
-27 0 -32 5 -51 50 -11 28 -24 50 -28 50 -4 0 -10 -22 -14 -50 -6 -48 -8 -50
-37 -50 -24 0 -29 4 -25 18 3 9 10 54 17 100 l12 82 34 0 c29 0 35 -5 57 -47z
m186 -10 c3 -28 8 -54 11 -57 3 -4 17 21 32 54 23 55 28 60 56 60 17 0 31 -2
31 -5 0 -3 -21 -48 -47 -100 -47 -95 -48 -95 -85 -95 -21 0 -38 1 -39 3 -7 27
-25 184 -22 190 3 5 17 7 31 5 25 -3 27 -8 32 -55z m434 30 c-2 -16 -8 -49
-13 -75 l-8 -48 44 0 c37 0 44 -3 39 -16 -3 -9 -6 -20 -6 -25 0 -5 -31 -9 -70
-9 -80 0 -76 -7 -59 103 14 96 14 97 48 97 28 0 30 -2 25 -27z m166 -30 c3
-28 8 -54 11 -57 3 -4 17 21 32 54 23 55 28 60 56 60 17 0 31 -2 31 -5 0 -3
-21 -48 -47 -100 -47 -95 -48 -95 -85 -95 -21 0 -38 1 -39 3 -7 27 -25 184
-22 190 3 5 17 7 31 5 25 -3 27 -8 32 -55z m204 30 c-2 -16 -10 -59 -17 -98
-12 -68 -13 -70 -43 -73 l-30 -3 17 98 c9 54 17 99 18 101 1 1 14 2 31 2 27 0
29 -3 24 -27z m-719 -492 c44 -21 92 -43 106 -49 23 -9 49 -62 49 -102 0 -18
-43 -60 -62 -60 -26 0 -30 -16 -14 -49 12 -23 14 -40 7 -78 -17 -89 -42 -320
-46 -415 -7 -224 -46 -506 -89 -658 -9 -30 -16 -69 -16 -86 0 -18 -8 -60 -19
-95 -10 -35 -31 -116 -46 -179 -15 -63 -38 -138 -51 -167 -13 -28 -24 -60 -24
-70 -1 -46 -60 -78 -124 -67 -109 18 -156 68 -201 214 -9 30 -21 64 -26 75
-16 37 -47 229 -54 345 -3 41 -9 95 -14 120 -6 25 -10 52 -11 60 -7 120 -6
161 3 195 6 22 10 69 8 105 -3 86 9 115 54 130 30 10 41 9 73 -8 38 -19 41
-24 87 -124 26 -56 27 -60 26 -270 0 -198 9 -281 23 -217 3 13 15 62 27 109
12 47 24 96 27 110 3 14 12 35 20 48 8 13 18 63 22 120 11 137 29 273 40 297
16 37 20 74 26 231 3 87 9 165 15 175 12 24 12 76 -2 84 -5 4 -18 1 -27 -7
-17 -15 -113 -48 -137 -48 -7 0 -15 -3 -17 -7 -1 -5 -32 -21 -68 -36 -67 -30
-72 -32 -205 -101 -116 -60 -189 -82 -220 -68 -17 8 -25 8 -25 1 0 -6 -5 -7
-10 -4 -6 4 -8 27 -6 55 5 46 18 76 85 193 30 54 136 167 155 167 7 0 32 13
57 28 24 16 73 36 109 46 36 10 83 26 105 36 86 39 214 68 275 63 19 -2 71
-20 115 -42z m4682 2 c76 -31 162 -106 156 -135 -7 -28 -64 -56 -128 -62 -33
-3 -73 -8 -90 -10 -16 -3 -66 -10 -109 -15 -75 -10 -262 -56 -284 -70 -6 -3
-13 -62 -16 -137 -3 -72 -10 -143 -15 -156 -5 -14 -11 -53 -13 -89 l-3 -64 85
4 c90 3 155 -13 166 -43 5 -14 114 -86 131 -86 15 0 54 -46 46 -54 -4 -4 0 -4
9 -1 9 4 19 1 24 -6 4 -7 2 -15 -5 -17 -9 -3 -9 -7 0 -18 9 -11 8 -18 -2 -30
-19 -23 -49 -32 -159 -49 -54 -8 -109 -19 -123 -24 -14 -5 -27 -8 -29 -6 -2 2
-26 -2 -53 -10 -26 -8 -67 -15 -91 -15 -46 0 -58 -10 -60 -50 -1 -14 -4 -70
-8 -125 -4 -55 -8 -140 -9 -190 -1 -49 -6 -95 -10 -102 -4 -6 -2 -13 4 -15 6
-2 13 -28 15 -58 3 -30 8 -58 12 -61 11 -11 117 46 173 93 28 23 57 58 65 77
8 20 20 39 26 42 30 19 138 -23 138 -54 0 -10 -7 -34 -15 -54 -8 -19 -15 -44
-15 -53 0 -10 -10 -31 -23 -47 -12 -15 -28 -40 -36 -54 -7 -15 -35 -51 -62
-80 -27 -30 -49 -58 -49 -64 0 -17 -40 -36 -63 -30 -15 4 -18 3 -9 -3 12 -8
11 -12 -3 -23 -9 -8 -26 -24 -37 -36 -24 -25 -96 -51 -148 -53 -82 -4 -110 0
-110 15 0 8 -7 15 -16 15 -26 0 -82 67 -90 105 -3 20 -10 38 -15 41 -5 3 -6
16 -3 29 3 13 1 32 -5 43 -6 12 -8 23 -3 26 4 2 4 44 0 93 -17 196 -6 637 17
713 8 25 17 68 19 95 3 28 13 100 22 160 27 178 27 184 25 313 -1 102 1 123
14 128 8 3 15 11 15 16 0 5 9 22 19 37 11 15 18 36 15 47 -6 26 31 84 55 84
11 0 32 6 48 14 43 21 112 38 176 42 32 2 66 8 77 14 13 7 27 7 44 -2 20 -9
32 -8 54 2 15 7 50 15 77 17 28 3 52 7 54 9 12 11 68 1 128 -23z m-1111 -63
c8 0 14 -7 14 -15 0 -8 7 -15 15 -15 8 0 15 -6 15 -14 0 -7 7 -19 15 -26 8 -6
26 -32 39 -56 25 -45 24 -82 -3 -98 -5 -3 -17 -29 -26 -56 -9 -28 -20 -50 -23
-50 -4 0 -8 -15 -9 -33 -2 -19 -10 -52 -19 -73 -10 -21 -19 -55 -21 -74 -4
-37 -34 -140 -89 -310 -19 -58 -50 -154 -69 -213 -19 -60 -33 -113 -30 -117 3
-5 2 -17 -3 -27 -33 -64 -68 -159 -118 -318 -19 -60 -44 -139 -56 -175 -14
-41 -23 -93 -25 -140 -2 -83 -18 -140 -39 -140 -8 0 -14 -5 -14 -11 0 -6 -9
-8 -20 -4 -14 4 -20 2 -20 -8 0 -12 -11 -14 -50 -12 -43 3 -58 10 -100 47 -37
33 -50 52 -55 83 -4 22 -11 45 -16 51 -6 7 -6 21 0 36 9 24 4 93 -18 226 -5
31 -4 52 1 52 5 0 6 5 2 11 -3 6 -8 41 -10 77 -1 37 -6 112 -10 167 -3 55 -8
138 -9 185 -2 47 -6 121 -9 165 -4 44 -11 144 -16 222 -5 78 -15 154 -20 169
-6 15 -11 57 -12 93 0 36 -4 73 -8 81 -12 24 15 72 58 108 23 17 45 32 50 32
5 0 32 -10 61 -21 33 -14 51 -28 51 -39 0 -10 8 -28 19 -41 19 -25 31 -54 36
-92 2 -12 15 -50 29 -83 19 -45 27 -85 30 -153 3 -50 8 -96 11 -101 3 -5 6
-57 6 -115 0 -87 3 -105 15 -105 8 0 13 4 10 9 -3 5 1 12 9 15 8 3 14 9 13 13
-5 19 15 143 23 149 5 3 7 14 4 25 -4 11 5 40 20 70 14 29 24 58 21 66 -3 7 6
35 20 63 14 28 23 54 20 58 -3 5 1 20 8 34 17 32 47 122 51 151 1 12 17 60 34
107 18 47 37 100 42 119 16 51 58 109 82 113 15 3 31 -7 50 -29 16 -18 35 -33
43 -33z m-2382 -31 c14 -7 22 -17 19 -25 -3 -8 1 -14 9 -14 15 0 68 -56 68
-73 0 -6 11 -22 23 -36 13 -15 34 -51 46 -81 13 -30 36 -82 51 -115 40 -84 88
-248 96 -325 4 -36 9 -69 13 -75 3 -5 4 -20 3 -32 -2 -11 2 -24 7 -28 6 -3 11
-21 11 -38 1 -18 10 -72 20 -122 11 -49 22 -121 25 -159 3 -39 9 -86 15 -105
5 -20 10 -65 11 -101 1 -36 6 -78 11 -95 4 -16 13 -91 19 -165 24 -287 15
-345 -51 -345 -19 0 -41 -4 -48 -8 -8 -6 -20 -3 -32 8 -10 9 -23 14 -28 11
-19 -12 -52 25 -52 59 0 19 -5 37 -10 40 -6 4 -8 15 -5 25 3 10 1 21 -5 25 -5
3 -10 27 -10 53 0 26 -7 60 -15 75 -8 16 -19 67 -25 114 -6 47 -17 100 -24
117 -7 17 -11 37 -9 44 5 14 -13 16 -22 2 -4 -6 -40 -33 -80 -60 -75 -50 -149
-83 -217 -94 -20 -4 -46 -14 -56 -24 -20 -17 -72 -148 -72 -181 0 -10 -7 -31
-15 -47 -8 -16 -16 -46 -19 -66 -2 -20 -14 -50 -26 -66 -18 -24 -31 -31 -74
-35 -60 -6 -86 10 -86 54 0 32 -19 79 -32 79 -4 0 -6 17 -3 38 3 20 7 55 10
77 2 22 7 51 10 65 23 96 31 119 47 148 10 18 16 37 13 42 -3 5 -2 11 3 14 5
3 15 30 22 61 7 31 17 58 22 61 4 3 8 16 8 29 0 13 5 27 10 30 6 3 10 17 10
31 0 13 4 32 9 42 5 9 14 37 21 62 7 25 18 60 26 78 8 18 12 37 9 42 -3 4 2
25 11 46 9 21 14 54 12 73 -3 21 0 40 7 46 11 9 25 58 55 185 48 203 62 257
67 270 3 8 5 19 4 24 -2 10 26 109 41 146 6 14 12 43 14 64 2 37 27 106 47
134 12 15 58 16 91 1z m4141 -45 c11 -8 32 -14 46 -14 15 0 29 -4 31 -8 2 -4
18 -18 36 -31 26 -18 31 -28 26 -44 -4 -12 -13 -26 -22 -31 -8 -5 -32 -24 -52
-43 -40 -35 -120 -177 -120 -211 0 -12 -4 -24 -10 -27 -5 -3 -10 -23 -10 -44
0 -21 -11 -60 -25 -87 -28 -55 -33 -131 -12 -167 8 -12 15 -53 16 -92 1 -38 7
-92 12 -119 5 -26 7 -52 4 -56 -3 -4 4 -43 15 -86 19 -73 29 -103 50 -145 5
-9 14 -36 20 -59 18 -68 60 -149 90 -173 39 -31 82 -120 74 -152 -4 -15 -2
-25 5 -25 24 0 9 -19 -34 -44 -25 -15 -45 -31 -45 -35 0 -5 -11 -12 -25 -15
-14 -4 -25 -13 -25 -22 0 -9 -36 -32 -92 -58 -129 -61 -180 -76 -274 -83 -66
-5 -86 -3 -105 11 -13 9 -31 16 -39 16 -9 0 -26 13 -37 28 -26 35 -19 48 47
96 27 20 50 42 50 49 0 7 16 20 35 29 19 10 51 25 71 35 20 10 39 23 41 30 3
7 11 13 17 13 7 0 27 15 44 33 28 29 31 37 23 59 -5 15 -15 29 -20 33 -6 3
-11 14 -11 25 0 16 -77 192 -116 262 -7 14 -14 35 -14 46 0 11 -7 25 -15 32
-22 19 -54 113 -76 229 -11 58 -26 115 -33 126 -9 14 -9 28 -2 47 8 23 6 33
-13 58 -20 28 -21 36 -12 78 6 28 6 51 1 56 -6 6 -6 14 0 22 6 6 12 33 14 60
7 76 15 116 36 159 11 22 29 68 41 103 12 34 25 62 29 62 4 0 37 20 74 44 50
34 77 46 113 49 71 5 155 -4 178 -19z m-3268 -238 c11 -2 36 -20 55 -41 55
-63 61 -74 48 -90 -7 -9 -8 -15 0 -20 11 -7 3 -84 -10 -99 -5 -5 -6 -14 -4
-21 5 -13 -8 -116 -28 -225 -17 -95 -20 -140 -21 -350 -2 -225 6 -377 21 -406
5 -11 8 -24 5 -30 -2 -6 8 -17 22 -24 22 -12 31 -12 58 -1 33 14 49 15 107 7
19 -3 72 -6 117 -7 59 -1 83 -5 87 -15 4 -10 24 -14 63 -15 32 0 52 -3 46 -6
-7 -2 -13 -14 -13 -24 0 -42 -68 -129 -101 -129 -10 0 -31 -11 -47 -25 -17
-14 -39 -25 -50 -25 -11 0 -25 -6 -31 -14 -9 -11 -25 -13 -57 -9 -37 4 -50 1
-78 -21 -31 -23 -97 -45 -151 -51 -11 -1 -28 -5 -37 -8 -39 -15 -46 -15 -74 3
-19 13 -32 16 -40 9 -14 -11 -97 100 -119 160 -30 81 -56 351 -58 591 -1 138
2 170 16 198 10 17 14 32 9 32 -10 0 -4 174 6 178 5 1 6 17 4 35 -4 37 9 115
32 202 10 33 15 67 13 76 -5 19 92 146 126 165 12 7 31 10 42 8 11 -3 30 -6
42 -8z m-1702 -1283 c48 -26 117 -128 113 -168 -1 -11 6 -45 15 -76 18 -58 17
-65 -19 -131 -19 -35 -76 -48 -103 -24 -10 9 -24 16 -31 16 -16 0 -50 29 -50
43 0 6 -12 26 -27 46 -15 19 -28 47 -29 61 -2 14 -5 44 -8 66 -5 32 -2 43 9
48 8 3 15 14 15 25 0 15 5 18 21 14 20 -6 21 -3 14 37 -5 30 -3 45 5 50 16 10
49 7 75 -7z"/>
<path d="M1750 6668 c-1 -7 -5 -32 -9 -55 -8 -42 -8 -43 19 -43 22 0 30 6 39
31 14 41 14 45 -5 63 -19 19 -44 21 -44 4z"/>
<path d="M2920 6660 c-6 -12 -10 -35 -8 -53 3 -27 8 -33 32 -35 33 -4 46 10
46 54 0 52 -48 75 -70 34z"/>
<path d="M3617 6673 c-3 -5 -8 -30 -12 -56 l-8 -49 29 4 c24 2 31 9 39 42 8
33 6 40 -10 52 -21 16 -32 17 -38 7z"/>
<path d="M3830 6660 c-6 -11 -10 -35 -8 -53 3 -28 7 -32 35 -35 30 -3 32 -1
39 34 4 21 2 44 -3 53 -16 25 -50 25 -63 1z"/>
<path d="M4117 6674 c-15 -15 -7 -45 11 -42 9 2 17 12 17 22 0 20 -16 31 -28
20z"/>
<path d="M4300 6660 c-6 -11 -10 -35 -8 -53 3 -28 7 -32 35 -35 30 -3 32 -1
39 34 4 21 2 44 -3 53 -16 25 -50 25 -63 1z"/>
<path d="M4530 6660 c0 -15 5 -20 18 -18 9 2 17 10 17 18 0 8 -8 16 -17 18
-13 2 -18 -3 -18 -18z"/>
<path d="M3981 5453 c-11 -24 -30 -110 -46 -204 -2 -15 -11 -46 -20 -70 -8
-24 -15 -57 -15 -72 0 -16 -5 -37 -11 -48 -6 -11 -12 -38 -14 -60 -3 -21 -9
-48 -15 -58 -16 -31 -13 -33 42 -26 28 4 68 7 89 7 21 -1 41 3 44 9 4 5 17 9
31 9 26 0 32 26 14 60 -6 11 -6 21 -1 24 10 7 -5 86 -19 100 -5 5 -7 21 -4 35
3 14 -2 70 -10 123 -9 54 -16 110 -16 125 0 16 -8 38 -18 51 l-18 23 -13 -28z"/>
</g>
</svg>
